<?xml version="1.0" encoding="utf-8"?>
<!-- Generator: Adobe Illustrator 18.0.0, SVG Export Plug-In . SVG Version: 6.00 Build 0)  -->
<svg version="1.1" id="图层_1" xmlns="http://www.w3.org/2000/svg" xmlns:xlink="http://www.w3.org/1999/xlink" x="0px" y="0px"
	 width="86px" height="86px" viewBox="0 0 86 86" enable-background="new 0 0 86 86" xml:space="preserve">
<linearGradient id="SVGID_1_" gradientUnits="userSpaceOnUse" x1="79.25" y1="-107.35" x2="6.75" y2="-34.85" gradientTransform="matrix(1 0 0 -1 0 -16)">
	<stop  offset="0" style="stop-color:#FEDEA6"/>
	<stop  offset="1" style="stop-color:#FFF5E3"/>
</linearGradient>
<path fill="url(#SVGID_1_)" d="M43,0.3C19.4,0.3,0.3,19.4,0.3,43c0,0.4,0,41.3,0,41.3c0,0.8,0.6,1.4,1.4,1.4h82.6
	c0.8,0,1.4-0.6,1.4-1.4c0,0,0-40.9,0-41.3C85.7,19.4,66.6,0.3,43,0.3z"/>
<linearGradient id="SVGID_2_" gradientUnits="userSpaceOnUse" x1="15.0941" y1="-96.4945" x2="70.906" y2="-40.6826" gradientTransform="matrix(1 0 0 -1 0 -16)">
	<stop  offset="0" style="stop-color:#ED8540"/>
	<stop  offset="1" style="stop-color:#FFB757"/>
</linearGradient>
<path opacity="0.3" fill="url(#SVGID_2_)" enable-background="new    " d="M10.3,75.7V43c0-18.031,14.669-32.7,32.7-32.7
	c18.031,0,32.7,14.669,32.7,32.7v32.7H10.3z"/>
<g id="Layer_2" display="none">
</g>
<path fill="#F9AE06" d="M46.189,15.944l-5.702,3.865c-3.612,1.837-5.132,6.209-3.295,9.884l3.168,6.336
	c0.063,0.127,0.19,0.19,0.317,0.127l6.336-3.168c3.612-1.837,5.132-6.209,3.295-9.884l-3.865-7.033
	C46.443,15.944,46.316,15.881,46.189,15.944z"/>
<path fill="#FFD522" d="M40.414,28.654c-0.456-0.912-0.513-1.939-0.228-2.851c0.342-0.969,0.969-1.711,1.882-2.167l3.364-2.224
	l1.654,3.935c0.456,0.912,0.513,1.939,0.228,2.851c-0.342,0.969-0.969,1.711-1.882,2.167l-3.364,1.654L40.414,28.654z"/>
<path fill="#F9AE06" d="M27.796,21.573l-4.783,3.242c-3.029,1.541-4.305,5.208-2.764,8.291l2.657,5.314
	c0.053,0.106,0.159,0.159,0.266,0.106l5.314-2.657c3.029-1.541,4.305-5.208,2.764-8.291l-3.242-5.899
	C28.009,21.573,27.902,21.52,27.796,21.573z"/>
<path fill="#FFD522" d="M22.952,32.234c-0.383-0.765-0.43-1.626-0.191-2.391c0.287-0.813,0.813-1.435,1.578-1.818l2.822-1.865
	l1.387,3.3c0.383,0.765,0.43,1.626,0.191,2.391c-0.287,0.813-0.813,1.435-1.578,1.818l-2.822,1.387L22.952,32.234z"/>
<path fill="#F9AE06" d="M63.796,21.573l-4.783,3.242c-3.029,1.541-4.305,5.208-2.764,8.291l2.657,5.314
	c0.053,0.106,0.159,0.159,0.266,0.106l5.314-2.657c3.029-1.541,4.305-5.208,2.764-8.291l-3.242-5.899
	C64.009,21.573,63.902,21.52,63.796,21.573z"/>
<path fill="#FFD522" d="M58.952,32.234c-0.383-0.765-0.43-1.626-0.191-2.391c0.287-0.813,0.813-1.435,1.578-1.818l2.822-1.865
	l1.387,3.3c0.383,0.765,0.43,1.626,0.191,2.391c-0.287,0.813-0.813,1.435-1.578,1.818l-2.822,1.387L58.952,32.234z"/>
<linearGradient id="SVGID_3_" gradientUnits="userSpaceOnUse" x1="89.4531" y1="101.25" x2="77.4531" y2="89.25" gradientTransform="matrix(4.489659e-011 1 -1 4.489659e-011 138.25 -39.75)">
	<stop  offset="0" style="stop-color:#E42C3E"/>
	<stop  offset="1" style="stop-color:#FA680F"/>
</linearGradient>
<rect x="38" y="36.703" fill="url(#SVGID_3_)" width="10" height="14"/>
<linearGradient id="SVGID_4_" gradientUnits="userSpaceOnUse" x1="87.9531" y1="117.75" x2="78.9531" y2="108.75" gradientTransform="matrix(4.489659e-011 1 -1 4.489659e-011 138.25 -39.75)">
	<stop  offset="0" style="stop-color:#E42C3E"/>
	<stop  offset="1" style="stop-color:#FA680F"/>
</linearGradient>
<rect x="21" y="38.703" fill="url(#SVGID_4_)" width="8" height="10"/>
<linearGradient id="SVGID_5_" gradientUnits="userSpaceOnUse" x1="87.9531" y1="81.75" x2="78.9531" y2="72.75" gradientTransform="matrix(4.489659e-011 1 -1 4.489659e-011 138.25 -39.75)">
	<stop  offset="0" style="stop-color:#E42C3E"/>
	<stop  offset="1" style="stop-color:#FA680F"/>
</linearGradient>
<rect x="57" y="38.703" fill="url(#SVGID_5_)" width="8" height="10"/>
<linearGradient id="SVGID_6_" gradientUnits="userSpaceOnUse" x1="10.3" y1="165.7016" x2="75.7" y2="165.7016" gradientTransform="matrix(1 0 0 1 0 -104)">
	<stop  offset="0" style="stop-color:#EB424A"/>
	<stop  offset="1" style="stop-color:#FD6F09"/>
</linearGradient>
<rect x="10.3" y="47.703" fill="url(#SVGID_6_)" width="65.4" height="27.997"/>
</svg>
